<?xml version="1.0"?>
<svg width="830" height="962" xmlns="http://www.w3.org/2000/svg" xmlns:svg="http://www.w3.org/2000/svg" preserveAspectRatio="xMidYMid meet" version="1.0">
 <g class="layer">
  <title>Layer 1</title>
  <g fill="#16a34a" id="svg_1" transform="matrix(0.0893905 0 0 -0.09751 78.894 950.026)">
   <path d="m3672.89,9604c-207,-41 -373,-129 -516,-273c-134,-135 -227,-306 -265,-486c-20,-94 -23,-282 -6,-372c57,-300 258,-567 522,-695c57,-28 88,-49 89,-59c0,-18 -61,-408 -116,-734c-60,-360 -111,-600 -145,-686c-8,-21 -30,-34 -103,-63c-180,-71 -338,-161 -492,-282l-82,-63l-183,-21c-630,-71 -1394,-212 -1979,-367c-162,-43 -701,-201 -708,-208c-3,-3 3,-5 14,-5c46,0 662,-31 894,-45c481,-29 1405,-107 1418,-119c2,-2 -10,-47 -27,-99c-152,-475 -114,-996 106,-1459l56,-117l-45,-83c-92,-169 -259,-422 -692,-1048c-158,-228 -291,-421 -296,-429c-7,-12 -18,-11 -76,7c-210,65 -402,67 -598,5c-325,-102 -575,-368 -658,-699c-32,-128 -32,-343 1,-464c45,-171 120,-305 240,-432c278,-294 688,-386 1067,-239c240,93 465,324 554,568c77,214 79,465 4,660c-14,37 -27,78 -28,89c-1,17 91,95 423,359c643,511 853,671 1026,779c48,31 96,56 106,56c9,0 74,-16 144,-35c171,-47 321,-68 498,-69l149,-1l910,-940c501,-517 915,-942 921,-944c5,-2 -2,16 -16,40c-14,24 -121,215 -237,424c-209,374 -618,1091 -739,1294c-34,57 -60,105 -58,107c6,6 363,-266 702,-536c182,-144 403,-319 492,-388c130,-101 162,-131 158,-147c-2,-11 -16,-54 -31,-95c-121,-341 -37,-720 220,-988c386,-403 1016,-403 1401,-1c126,131 208,280 252,455c26,107 24,333 -5,448c-99,394 -425,683 -828,737c-144,19 -334,-4 -466,-56l-37,-14l-319,462c-350,507 -509,744 -606,901c-67,108 -126,218 -126,236c0,6 22,57 50,114c87,183 148,390 173,591l13,99l84,60c106,74 274,242 319,319c132,224 117,454 -41,631c-111,125 -366,262 -705,379l-132,46l-84,84c-160,161 -297,259 -512,368l-150,76l-22,58c-50,130 -104,368 -223,995c-44,228 -82,425 -85,437c-4,18 6,27 69,62c229,125 394,330 473,588c25,82 27,101 27,268c0,167 -2,186 -27,268c-113,367 -396,621 -770,692c-96,18 -247,18 -341,-1zm309,-189c315,-55 560,-292 631,-611c21,-99 15,-278 -14,-376c-79,-264 -299,-475 -567,-544c-95,-24 -275,-24 -370,0c-266,69 -477,265 -561,523c-27,82 -29,99 -29,243c1,143 3,161 28,235c72,206 210,366 398,460c152,77 311,100 484,70zm110,-1922c153,-811 225,-1133 286,-1279c34,-81 85,-148 122,-160c80,-24 417,-217 404,-230c-2,-3 -65,6 -138,20c-141,26 -382,57 -609,78c-149,14 -1104,18 -1178,5c-25,-4 -41,-4 -38,1c9,15 225,118 306,147c81,28 121,59 151,117c56,109 123,437 234,1138c19,124 40,252 46,285l10,61l127,-4c70,-2 147,1 172,6c25,6 50,10 56,11c7,1 26,-75 49,-196zm15,-1763c608,-49 1102,-159 1505,-335c272,-118 402,-209 456,-320c19,-40 24,-65 24,-126c0,-68 -5,-85 -39,-154c-128,-259 -575,-527 -1201,-719c-297,-91 -702,-186 -1035,-241c-58,-10 -111,-21 -117,-24c-9,-5 1,-28 34,-76c226,-337 720,-1152 1092,-1800l92,-160l-124,125c-68,69 -568,584 -1111,1144c-661,682 -983,1022 -974,1026c7,4 73,10 147,14c264,13 646,59 872,105c502,104 826,267 854,430c33,198 -240,336 -945,475c-590,117 -1509,230 -2440,301c-113,8 -230,18 -260,22c-66,7 -85,2 235,67c660,136 1359,227 1963,256c212,10 797,4 972,-10zm-1516,-670c882,-111 1479,-235 1717,-355c67,-34 77,-50 50,-79c-54,-57 -274,-151 -473,-202c-381,-96 -997,-164 -1501,-164c-78,0 -137,-4 -135,-9c2,-5 338,-355 748,-777c410,-422 751,-776 759,-787c14,-20 13,-20 -65,-13c-112,10 -261,40 -378,77c-71,22 -112,29 -140,26c-120,-16 -389,-200 -981,-672c-143,-113 -354,-281 -469,-372l-209,-166l-61,66c-34,36 -87,86 -118,110l-57,46l286,413c592,855 746,1102 775,1242l12,54l-57,113c-93,188 -137,316 -174,504c-25,128 -25,493 0,617c20,100 56,227 87,311c18,48 25,57 46,57c14,0 166,-18 338,-40zm2973,-992c-26,-125 -76,-267 -143,-407c-71,-147 -75,-171 -44,-257c47,-134 279,-496 799,-1244l260,-375l-52,-44c-29,-25 -80,-74 -114,-110l-62,-65l-63,49c-35,27 -207,164 -383,304c-772,615 -1021,797 -1165,852c-39,15 -51,27 -89,90c-145,241 -337,553 -412,671c-82,129 -87,138 -66,143c12,3 90,19 172,36c489,99 950,243 1295,402c41,19 77,33 78,32c2,-2 -3,-37 -11,-77zm-4634,-2337c390,-101 648,-502 573,-893c-34,-174 -93,-284 -221,-413c-101,-101 -169,-145 -287,-187c-294,-104 -617,-25 -831,201c-335,355 -266,926 143,1190c186,121 408,157 623,102zm6261,-1c316,-81 553,-364 581,-697c29,-335 -188,-675 -503,-790c-141,-52 -272,-64 -412,-39c-159,29 -277,88 -396,199c-336,313 -336,834 1,1145c197,181 468,249 729,182z" id="svg_2" stroke="#16a34a" stroke-width="200"/>
  </g>
 </g>
</svg>